<svg width="36" height="28" viewBox="0 0 36 28" fill="none" xmlns="http://www.w3.org/2000/svg">
<line x1="0.75" y1="4.5" x2="0.750001" y2="23.5" stroke="#2B4248" stroke-width="1.5"/>
<path d="M28.893 18.92L31.973 22M31 13.5C31 15.4891 30.2098 17.3968 28.8033 18.8033C27.3968 20.2098 25.4891 21 23.5 21C21.5109 21 19.6032 20.2098 18.1967 18.8033C16.7902 17.3968 16 15.4891 16 13.5C16 11.5109 16.7902 9.60322 18.1967 8.1967C19.6032 6.79018 21.5109 6 23.5 6C25.4891 6 27.3968 6.79018 28.8033 8.1967C30.2098 9.60322 31 11.5109 31 13.5Z" stroke="#2B4248" stroke-linecap="round" stroke-linejoin="round"/>
</svg>
